<?xml version="1.0" standalone="no"?>
<!DOCTYPE svg PUBLIC "-//W3C//DTD SVG 20010904//EN"
 "http://www.w3.org/TR/2001/REC-SVG-20010904/DTD/svg10.dtd">
<svg version="1.0" xmlns="http://www.w3.org/2000/svg"
 width="200.000000pt" height="200.000000pt" viewBox="0 0 200.000000 200.000000"
 preserveAspectRatio="xMidYMid meet">
<metadata>
Created by potrace 1.14, written by Peter Selinger 2001-2017
</metadata>
<g transform="translate(0.000000,200.000000) scale(0.100000,-0.100000)"
fill="#000000" stroke="none">
<path d="M1220 1461 c-69 -22 -123 -67 -153 -126 -80 -160 57 -353 235 -332
55 7 128 45 153 80 23 32 -1 34 -33 2 -76 -76 -193 -82 -276 -13 -51 42 -76
95 -76 163 0 120 85 205 204 205 70 0 102 -12 147 -57 24 -22 39 -31 44 -24 8
13 -44 65 -88 87 -35 19 -122 27 -157 15z"/>
<path d="M708 1252 c-100 -255 -93 -235 -78 -230 7 2 47 91 90 198 70 174 79
192 88 170 6 -14 28 -70 49 -125 l40 -100 -38 3 -38 4 14 35 c17 40 19 63 6
63 -7 0 -101 -227 -101 -244 0 -18 23 -2 31 22 9 27 10 27 88 24 74 -3 80 -5
85 -28 4 -13 13 -24 22 -24 8 0 13 3 11 8 -2 4 -41 100 -87 215 -45 114 -87
207 -93 207 -7 0 -47 -89 -89 -198z m155 -111 c20 2 39 1 42 -3 4 -3 -18 -8
-48 -10 -48 -3 -53 -1 -49 15 3 13 7 15 12 7 4 -7 23 -10 43 -9z m59 -38 c4
-16 -2 -18 -64 -15 -37 2 -68 8 -68 12 0 5 28 11 63 13 34 2 63 4 63 5 1 1 4
-6 6 -15z"/>
<path d="M830 1443 c0 -5 37 -101 81 -215 53 -133 87 -208 96 -208 8 0 12 3
10 8 -2 4 -41 100 -87 215 -45 114 -86 207 -91 207 -5 0 -9 -3 -9 -7z"/>
<path d="M870 1443 c0 -5 37 -101 81 -215 53 -133 87 -208 96 -208 8 0 12 3
10 8 -3 4 -42 100 -87 215 -45 114 -86 207 -91 207 -5 0 -9 -3 -9 -7z"/>
<path d="M910 1443 c0 -5 37 -101 81 -215 53 -133 87 -208 96 -208 8 0 12 3
10 8 -3 4 -42 100 -87 215 -45 114 -86 207 -91 207 -5 0 -9 -3 -9 -7z"/>
<path d="M1195 1411 c-136 -63 -153 -239 -33 -335 69 -54 182 -47 246 15 45
44 28 57 -18 15 -111 -100 -284 -21 -284 129 0 153 171 227 288 124 19 -16 37
-25 40 -20 7 11 -57 69 -91 82 -39 14 -104 10 -148 -10z"/>
<path d="M1192 1370 c-47 -29 -72 -76 -72 -135 0 -139 153 -209 260 -119 16
14 27 30 24 36 -4 5 -15 1 -28 -10 -33 -30 -61 -42 -103 -42 -101 0 -164 108
-115 199 43 80 165 94 221 27 7 -9 18 -13 23 -10 12 8 -19 42 -54 60 -40 21
-117 18 -156 -6z"/>
<path d="M726 1199 c-60 -153 -73 -202 -47 -173 10 11 131 317 131 333 0 38
-25 -10 -84 -160z"/>
<path d="M1223 1344 c-97 -48 -86 -194 17 -225 45 -14 76 -8 113 22 35 27 24
45 -11 20 -71 -51 -162 -12 -162 70 0 26 8 47 26 68 21 26 33 31 69 31 27 0
51 -7 68 -20 29 -23 46 -11 19 13 -20 18 -66 37 -90 37 -9 0 -31 -8 -49 -16z"/>
<path d="M756 1174 c-51 -131 -62 -176 -37 -148 11 12 111 266 111 282 0 38
-23 -4 -74 -134z"/>
<path d="M700 950 c0 -11 7 -20 15 -20 8 0 15 9 15 20 0 11 -7 20 -15 20 -8 0
-15 -9 -15 -20z"/>
<path d="M1702 953 c5 -25 28 -28 28 -4 0 12 -6 21 -16 21 -9 0 -14 -7 -12
-17z"/>
<path d="M352 863 c2 -66 7 -98 16 -101 9 -3 12 21 12 97 0 84 -3 101 -15 101
-13 0 -15 -15 -13 -97z"/>
<path d="M1160 935 c0 -16 -4 -23 -14 -19 -25 10 -46 -25 -46 -76 0 -57 18
-80 58 -76 l27 3 3 97 c2 81 0 96 -13 96 -9 0 -15 -9 -15 -25z m0 -96 c0 -36
-4 -49 -12 -47 -14 5 -23 61 -14 84 12 31 26 11 26 -37z"/>
<path d="M1592 863 c2 -66 7 -98 16 -101 9 -3 12 14 12 63 0 49 3 66 13 63 7
-3 13 -28 15 -67 4 -80 26 -79 30 2 4 67 -10 101 -39 92 -15 -5 -19 -2 -19 19
0 17 -6 26 -15 26 -13 0 -15 -15 -13 -97z"/>
<path d="M256 864 c-17 -95 -13 -119 15 -83 l19 24 19 -24 c28 -36 32 -12 15
83 -13 70 -20 86 -34 86 -14 0 -21 -16 -34 -86z m44 -24 c0 -11 -4 -20 -10
-20 -5 0 -10 9 -10 20 0 11 5 20 10 20 6 0 10 -9 10 -20z"/>
<path d="M812 938 c-7 -7 -12 -40 -12 -85 0 -68 2 -74 25 -85 30 -14 55 3 55
38 0 29 -20 32 -27 4 -11 -41 -23 -18 -23 45 0 37 4 65 10 65 6 0 10 -7 10
-15 0 -8 7 -15 16 -15 11 0 14 8 12 28 -2 20 -9 28 -28 30 -14 2 -31 -3 -38
-10z"/>
<path d="M420 905 c-18 -22 -22 -87 -8 -115 17 -31 40 -36 62 -15 20 20 21 35
1 35 -8 0 -15 -4 -15 -10 0 -5 -4 -10 -10 -10 -21 0 -10 39 13 42 28 4 35 48
12 72 -20 20 -39 20 -55 1z m40 -30 c0 -8 -4 -15 -10 -15 -5 0 -10 7 -10 15 0
8 5 15 10 15 6 0 10 -7 10 -15z"/>
<path d="M506 893 c4 -16 8 -39 8 -53 0 -14 -4 -37 -8 -52 -6 -20 -5 -28 4
-28 6 0 14 9 17 20 6 23 23 27 23 6 0 -18 16 -29 29 -21 6 3 4 20 -5 41 -12
28 -13 43 -5 67 14 38 14 47 1 47 -6 0 -14 -10 -19 -22 l-8 -22 -12 22 c-17
32 -35 28 -25 -5z"/>
<path d="M618 909 c-28 -16 -26 -124 2 -139 14 -8 26 -8 40 0 23 13 27 40 5
40 -8 0 -15 -4 -15 -10 0 -5 -4 -10 -10 -10 -21 0 -10 39 13 42 29 4 37 56 11
75 -21 15 -24 15 -46 2z m32 -34 c0 -8 -4 -15 -10 -15 -5 0 -10 7 -10 15 0 8
5 15 10 15 6 0 10 -7 10 -15z"/>
<path d="M700 840 c0 -61 3 -81 13 -77 8 2 12 27 12 77 0 50 -4 75 -12 78 -10
3 -13 -17 -13 -78z"/>
<path d="M911 906 c-18 -21 -24 -78 -12 -109 25 -65 81 -35 81 44 0 66 -39
102 -69 65z m39 -60 c0 -25 -4 -48 -10 -51 -6 -4 -10 13 -10 44 0 28 5 51 10
51 6 0 10 -20 10 -44z"/>
<path d="M1000 838 c0 -59 3 -79 13 -76 7 3 13 28 15 66 4 80 20 80 24 0 2
-38 8 -63 16 -66 9 -3 12 16 12 72 0 42 -3 76 -7 77 -5 1 -23 2 -40 4 l-33 3
0 -80z"/>
<path d="M1217 913 c-13 -12 -8 -130 6 -140 6 -5 26 -9 42 -8 l30 2 0 74 c0
59 -3 74 -15 74 -11 0 -16 -15 -18 -62 -4 -83 -22 -81 -22 2 0 60 -6 75 -23
58z"/>
<path d="M1320 838 c0 -59 3 -79 13 -76 7 3 14 30 17 69 3 41 8 58 12 46 5
-10 12 -15 18 -12 12 7 14 45 3 46 -5 0 -20 2 -35 4 l-28 4 0 -81z"/>
<path d="M1412 908 c-14 -14 -16 -48 -3 -48 5 0 12 8 15 17 5 12 10 13 18 5 8
-8 3 -19 -20 -41 -36 -32 -36 -34 -22 -62 8 -14 19 -18 43 -15 32 3 32 4 35
63 2 46 -1 65 -13 77 -19 19 -37 20 -53 4z m38 -98 c0 -11 -4 -20 -10 -20 -5
0 -10 9 -10 20 0 11 5 20 10 20 6 0 10 -9 10 -20z"/>
<path d="M1518 909 c-14 -8 -18 -23 -18 -68 0 -64 15 -87 50 -76 20 6 29 45
10 45 -5 0 -10 -4 -10 -10 0 -5 -4 -10 -10 -10 -5 0 -10 23 -10 50 0 28 5 50
10 50 6 0 10 -7 10 -15 0 -8 5 -15 10 -15 16 0 11 47 -6 54 -19 7 -15 8 -36
-5z"/>
<path d="M1704 906 c-10 -26 1 -139 14 -144 9 -3 12 17 12 77 0 49 -4 81 -10
81 -6 0 -13 -6 -16 -14z"/>
<path d="M963 720 c-21 -9 -33 -40 -15 -40 17 0 3 -82 -19 -106 -17 -19 -19
-24 -7 -24 9 0 21 7 28 15 7 8 19 15 27 15 9 0 13 -6 9 -15 -3 -9 0 -15 9 -15
9 0 15 10 15 24 0 20 16 36 36 36 10 0 3 -49 -8 -53 -7 -3 -5 -6 6 -6 10 -1
24 6 31 15 8 12 20 15 39 10 15 -4 24 -11 21 -16 -3 -6 1 -10 10 -10 12 0 15
5 11 16 -3 9 -6 18 -6 20 0 2 -7 4 -15 4 -8 0 -15 6 -15 14 0 8 7 16 15 20 17
6 20 32 6 40 -5 4 -7 -3 -4 -14 6 -24 -4 -25 -31 -5 -11 8 -32 15 -47 15 -24
0 -28 4 -31 33 -3 35 -24 44 -65 27z"/>
<path d="M1114 708 c-4 -7 -3 -8 5 -4 6 4 19 2 27 -5 16 -13 30 -6 19 10 -8
15 -42 14 -51 -1z"/>
<path d="M338 643 c79 -2 205 -2 280 0 75 1 11 3 -143 3 -154 0 -216 -2 -137
-3z"/>
<path d="M1458 643 c67 -2 177 -2 245 0 67 1 12 3 -123 3 -135 0 -190 -2 -122
-3z"/>
</g>
</svg>
